<mxfile host="Electron" modified="2024-04-15T16:44:44.953Z" agent="Mozilla/5.0 (Windows NT 10.0; Win64; x64) AppleWebKit/537.36 (KHTML, like Gecko) draw.io/23.1.5 Chrome/120.0.6099.109 Electron/28.1.0 Safari/537.36" etag="uCS3114eKACx5m1TV_Aq" version="23.1.5" type="device">
  <diagram name="Pagina-1" id="2E39NDmfMYuv_2c8OxZy">
    <mxGraphModel dx="276" dy="161" grid="1" gridSize="10" guides="1" tooltips="1" connect="1" arrows="1" fold="1" page="1" pageScale="1" pageWidth="827" pageHeight="1169" math="0" shadow="0">
      <root>
        <mxCell id="0" />
        <mxCell id="1" parent="0" />
        <mxCell id="5KzQJG8aGWldB78MasGk-3" value="" style="rounded=0;whiteSpace=wrap;html=1;fillColor=none;" vertex="1" parent="1">
          <mxGeometry x="330" y="370" width="80" height="60" as="geometry" />
        </mxCell>
        <mxCell id="5KzQJG8aGWldB78MasGk-131" value="" style="rounded=0;whiteSpace=wrap;html=1;fillColor=none;" vertex="1" parent="1">
          <mxGeometry x="330" y="520" width="80" height="60" as="geometry" />
        </mxCell>
        <mxCell id="5KzQJG8aGWldB78MasGk-1" value="" style="endArrow=classic;html=1;rounded=0;strokeWidth=1;strokeColor=#969696;dashed=1;dashPattern=1 4;" edge="1" parent="1">
          <mxGeometry width="50" height="50" relative="1" as="geometry">
            <mxPoint x="320" y="450" as="sourcePoint" />
            <mxPoint x="320" y="340" as="targetPoint" />
          </mxGeometry>
        </mxCell>
        <mxCell id="5KzQJG8aGWldB78MasGk-2" value="" style="endArrow=classic;html=1;rounded=0;strokeWidth=1;strokeColor=#969696;dashed=1;dashPattern=1 4;" edge="1" parent="1">
          <mxGeometry width="50" height="50" relative="1" as="geometry">
            <mxPoint x="310" y="440" as="sourcePoint" />
            <mxPoint x="440" y="440" as="targetPoint" />
          </mxGeometry>
        </mxCell>
        <mxCell id="5KzQJG8aGWldB78MasGk-5" value="T" style="text;html=1;align=center;verticalAlign=middle;whiteSpace=wrap;rounded=0;fontSize=10;fontStyle=2;fontFamily=Computer modern;" vertex="1" parent="1">
          <mxGeometry x="410" y="360" width="10" height="10" as="geometry" />
        </mxCell>
        <mxCell id="5KzQJG8aGWldB78MasGk-7" value="" style="endArrow=none;dashed=1;html=1;dashPattern=1 4;strokeWidth=1;rounded=0;entryX=0.75;entryY=0;entryDx=0;entryDy=0;exitX=0.75;exitY=1;exitDx=0;exitDy=0;strokeColor=#969696;" edge="1" parent="1" source="5KzQJG8aGWldB78MasGk-3" target="5KzQJG8aGWldB78MasGk-3">
          <mxGeometry width="50" height="50" relative="1" as="geometry">
            <mxPoint x="330" y="420" as="sourcePoint" />
            <mxPoint x="390" y="380" as="targetPoint" />
          </mxGeometry>
        </mxCell>
        <mxCell id="5KzQJG8aGWldB78MasGk-8" value="" style="endArrow=none;dashed=1;html=1;dashPattern=1 4;strokeWidth=1;rounded=0;exitX=1.006;exitY=0.329;exitDx=0;exitDy=0;exitPerimeter=0;strokeColor=#969696;" edge="1" parent="1">
          <mxGeometry width="50" height="50" relative="1" as="geometry">
            <mxPoint x="407.48" y="389.74" as="sourcePoint" />
            <mxPoint x="330" y="390" as="targetPoint" />
          </mxGeometry>
        </mxCell>
        <mxCell id="5KzQJG8aGWldB78MasGk-9" value="" style="endArrow=none;dashed=1;html=1;dashPattern=1 4;strokeWidth=1;rounded=0;exitX=1.006;exitY=0.329;exitDx=0;exitDy=0;exitPerimeter=0;strokeColor=#969696;" edge="1" parent="1">
          <mxGeometry width="50" height="50" relative="1" as="geometry">
            <mxPoint x="408" y="410" as="sourcePoint" />
            <mxPoint x="328" y="410" as="targetPoint" />
          </mxGeometry>
        </mxCell>
        <mxCell id="5KzQJG8aGWldB78MasGk-10" value="" style="endArrow=none;dashed=1;html=1;dashPattern=1 4;strokeWidth=1;rounded=0;exitX=0.75;exitY=1;exitDx=0;exitDy=0;strokeColor=#969696;" edge="1" parent="1">
          <mxGeometry width="50" height="50" relative="1" as="geometry">
            <mxPoint x="350" y="430" as="sourcePoint" />
            <mxPoint x="350" y="370" as="targetPoint" />
          </mxGeometry>
        </mxCell>
        <mxCell id="5KzQJG8aGWldB78MasGk-22" value="" style="endArrow=none;dashed=1;html=1;rounded=0;fillColor=#dae8fc;strokeColor=#6c8ebf;dashPattern=8 8;" edge="1" parent="1">
          <mxGeometry width="50" height="50" relative="1" as="geometry">
            <mxPoint x="339" y="390" as="sourcePoint" />
            <mxPoint x="331" y="383" as="targetPoint" />
          </mxGeometry>
        </mxCell>
        <mxCell id="5KzQJG8aGWldB78MasGk-23" value="" style="endArrow=none;dashed=1;html=1;rounded=0;fillColor=#dae8fc;strokeColor=#6c8ebf;dashPattern=8 8;" edge="1" parent="1">
          <mxGeometry width="50" height="50" relative="1" as="geometry">
            <mxPoint x="355" y="390" as="sourcePoint" />
            <mxPoint x="334" y="371" as="targetPoint" />
          </mxGeometry>
        </mxCell>
        <mxCell id="5KzQJG8aGWldB78MasGk-25" value="" style="endArrow=none;dashed=1;html=1;rounded=0;fillColor=#dae8fc;strokeColor=#6c8ebf;dashPattern=8 8;" edge="1" parent="1">
          <mxGeometry width="50" height="50" relative="1" as="geometry">
            <mxPoint x="376" y="389" as="sourcePoint" />
            <mxPoint x="355" y="370" as="targetPoint" />
          </mxGeometry>
        </mxCell>
        <mxCell id="5KzQJG8aGWldB78MasGk-26" value="" style="endArrow=none;dashed=1;html=1;rounded=0;fillColor=#dae8fc;strokeColor=#6c8ebf;dashPattern=8 8;" edge="1" parent="1">
          <mxGeometry width="50" height="50" relative="1" as="geometry">
            <mxPoint x="387" y="389" as="sourcePoint" />
            <mxPoint x="366" y="370" as="targetPoint" />
          </mxGeometry>
        </mxCell>
        <mxCell id="5KzQJG8aGWldB78MasGk-27" value="" style="endArrow=none;dashed=1;html=1;rounded=0;fillColor=#dae8fc;strokeColor=#6c8ebf;dashPattern=8 8;" edge="1" parent="1">
          <mxGeometry width="50" height="50" relative="1" as="geometry">
            <mxPoint x="406" y="389" as="sourcePoint" />
            <mxPoint x="385" y="370" as="targetPoint" />
          </mxGeometry>
        </mxCell>
        <mxCell id="5KzQJG8aGWldB78MasGk-28" value="" style="endArrow=none;dashed=1;html=1;rounded=0;fillColor=#dae8fc;strokeColor=#6c8ebf;dashPattern=8 8;" edge="1" parent="1">
          <mxGeometry width="50" height="50" relative="1" as="geometry">
            <mxPoint x="408" y="377" as="sourcePoint" />
            <mxPoint x="400" y="370" as="targetPoint" />
          </mxGeometry>
        </mxCell>
        <mxCell id="5KzQJG8aGWldB78MasGk-36" value="E&lt;span style=&quot;font-size: 10px;&quot;&gt;&lt;span style=&quot;font-size: 10px;&quot;&gt;&lt;sub&gt;4&lt;/sub&gt;&lt;/span&gt;&lt;/span&gt;" style="text;html=1;align=center;verticalAlign=middle;whiteSpace=wrap;rounded=0;fontSize=10;fontStyle=2;fontFamily=Computer modern;fontColor=#9673A6;" vertex="1" parent="1">
          <mxGeometry x="355" y="432" width="30" height="10" as="geometry" />
        </mxCell>
        <mxCell id="5KzQJG8aGWldB78MasGk-37" value="E&lt;span style=&quot;font-size: 10px;&quot;&gt;&lt;span style=&quot;font-size: 10px;&quot;&gt;&lt;sub&gt;1&lt;/sub&gt;&lt;/span&gt;&lt;/span&gt;" style="text;html=1;align=center;verticalAlign=middle;whiteSpace=wrap;rounded=0;fontSize=10;fontStyle=2;fontFamily=Computer modern;fontColor=#B85450;" vertex="1" parent="1">
          <mxGeometry x="411" y="390" width="10" height="20" as="geometry" />
        </mxCell>
        <mxCell id="5KzQJG8aGWldB78MasGk-38" value="E&lt;span style=&quot;font-size: 10px;&quot;&gt;&lt;span style=&quot;font-size: 10px;&quot;&gt;&lt;sub&gt;2&lt;/sub&gt;&lt;/span&gt;&lt;/span&gt;" style="text;html=1;align=center;verticalAlign=middle;whiteSpace=wrap;rounded=0;fontSize=10;fontStyle=2;fontFamily=Computer modern;fontColor=#6C8EBF;" vertex="1" parent="1">
          <mxGeometry x="355" y="359" width="30" height="10" as="geometry" />
        </mxCell>
        <mxCell id="5KzQJG8aGWldB78MasGk-39" value="E&lt;span style=&quot;font-size: 10px;&quot;&gt;&lt;span style=&quot;font-size: 10px;&quot;&gt;&lt;sub&gt;3&lt;/sub&gt;&lt;/span&gt;&lt;/span&gt;" style="text;html=1;align=center;verticalAlign=middle;whiteSpace=wrap;rounded=0;fontSize=10;fontStyle=2;fontFamily=Computer modern;fontColor=#82B366;" vertex="1" parent="1">
          <mxGeometry x="316" y="390" width="14" height="20" as="geometry" />
        </mxCell>
        <mxCell id="5KzQJG8aGWldB78MasGk-48" value="" style="endArrow=none;dashed=1;html=1;rounded=0;fillColor=#dae8fc;strokeColor=#6c8ebf;dashPattern=8 8;" edge="1" parent="1">
          <mxGeometry width="50" height="50" relative="1" as="geometry">
            <mxPoint x="365" y="389" as="sourcePoint" />
            <mxPoint x="344" y="370" as="targetPoint" />
          </mxGeometry>
        </mxCell>
        <mxCell id="5KzQJG8aGWldB78MasGk-50" value="" style="endArrow=none;dashed=1;html=1;rounded=0;fillColor=#dae8fc;strokeColor=#6c8ebf;dashPattern=8 8;" edge="1" parent="1">
          <mxGeometry width="50" height="50" relative="1" as="geometry">
            <mxPoint x="409" y="386" as="sourcePoint" />
            <mxPoint x="394" y="371" as="targetPoint" />
          </mxGeometry>
        </mxCell>
        <mxCell id="5KzQJG8aGWldB78MasGk-51" value="" style="endArrow=none;dashed=1;html=1;rounded=0;fillColor=#dae8fc;strokeColor=#6c8ebf;dashPattern=8 8;" edge="1" parent="1">
          <mxGeometry width="50" height="50" relative="1" as="geometry">
            <mxPoint x="347" y="389" as="sourcePoint" />
            <mxPoint x="331" y="376" as="targetPoint" />
          </mxGeometry>
        </mxCell>
        <mxCell id="5KzQJG8aGWldB78MasGk-63" value="" style="endArrow=none;dashed=1;html=1;rounded=0;fillColor=#e1d5e7;strokeColor=#9673a6;dashPattern=8 8;" edge="1" parent="1">
          <mxGeometry width="50" height="50" relative="1" as="geometry">
            <mxPoint x="338" y="430" as="sourcePoint" />
            <mxPoint x="330" y="423" as="targetPoint" />
          </mxGeometry>
        </mxCell>
        <mxCell id="5KzQJG8aGWldB78MasGk-64" value="" style="endArrow=none;dashed=1;html=1;rounded=0;fillColor=#e1d5e7;strokeColor=#9673a6;dashPattern=8 8;" edge="1" parent="1">
          <mxGeometry width="50" height="50" relative="1" as="geometry">
            <mxPoint x="354" y="430" as="sourcePoint" />
            <mxPoint x="333" y="411" as="targetPoint" />
          </mxGeometry>
        </mxCell>
        <mxCell id="5KzQJG8aGWldB78MasGk-65" value="" style="endArrow=none;dashed=1;html=1;rounded=0;fillColor=#e1d5e7;strokeColor=#9673a6;dashPattern=8 8;" edge="1" parent="1">
          <mxGeometry width="50" height="50" relative="1" as="geometry">
            <mxPoint x="375" y="429" as="sourcePoint" />
            <mxPoint x="354" y="410" as="targetPoint" />
          </mxGeometry>
        </mxCell>
        <mxCell id="5KzQJG8aGWldB78MasGk-66" value="" style="endArrow=none;dashed=1;html=1;rounded=0;fillColor=#e1d5e7;strokeColor=#9673a6;dashPattern=8 8;" edge="1" parent="1">
          <mxGeometry width="50" height="50" relative="1" as="geometry">
            <mxPoint x="386" y="429" as="sourcePoint" />
            <mxPoint x="365" y="410" as="targetPoint" />
          </mxGeometry>
        </mxCell>
        <mxCell id="5KzQJG8aGWldB78MasGk-67" value="" style="endArrow=none;dashed=1;html=1;rounded=0;fillColor=#e1d5e7;strokeColor=#9673a6;dashPattern=8 8;" edge="1" parent="1">
          <mxGeometry width="50" height="50" relative="1" as="geometry">
            <mxPoint x="405" y="429" as="sourcePoint" />
            <mxPoint x="384" y="410" as="targetPoint" />
          </mxGeometry>
        </mxCell>
        <mxCell id="5KzQJG8aGWldB78MasGk-68" value="" style="endArrow=none;dashed=1;html=1;rounded=0;fillColor=#e1d5e7;strokeColor=#9673a6;dashPattern=8 8;" edge="1" parent="1">
          <mxGeometry width="50" height="50" relative="1" as="geometry">
            <mxPoint x="407" y="417" as="sourcePoint" />
            <mxPoint x="399" y="410" as="targetPoint" />
          </mxGeometry>
        </mxCell>
        <mxCell id="5KzQJG8aGWldB78MasGk-69" value="" style="endArrow=none;dashed=1;html=1;rounded=0;fillColor=#e1d5e7;strokeColor=#9673a6;dashPattern=8 8;" edge="1" parent="1">
          <mxGeometry width="50" height="50" relative="1" as="geometry">
            <mxPoint x="364" y="429" as="sourcePoint" />
            <mxPoint x="343" y="410" as="targetPoint" />
          </mxGeometry>
        </mxCell>
        <mxCell id="5KzQJG8aGWldB78MasGk-70" value="" style="endArrow=none;dashed=1;html=1;rounded=0;fillColor=#e1d5e7;strokeColor=#9673a6;dashPattern=8 8;" edge="1" parent="1">
          <mxGeometry width="50" height="50" relative="1" as="geometry">
            <mxPoint x="397" y="429" as="sourcePoint" />
            <mxPoint x="376" y="410" as="targetPoint" />
          </mxGeometry>
        </mxCell>
        <mxCell id="5KzQJG8aGWldB78MasGk-71" value="" style="endArrow=none;dashed=1;html=1;rounded=0;fillColor=#e1d5e7;strokeColor=#9673a6;dashPattern=8 8;" edge="1" parent="1">
          <mxGeometry width="50" height="50" relative="1" as="geometry">
            <mxPoint x="408" y="426" as="sourcePoint" />
            <mxPoint x="393" y="411" as="targetPoint" />
          </mxGeometry>
        </mxCell>
        <mxCell id="5KzQJG8aGWldB78MasGk-72" value="" style="endArrow=none;dashed=1;html=1;rounded=0;fillColor=#e1d5e7;strokeColor=#9673a6;dashPattern=8 8;" edge="1" parent="1">
          <mxGeometry width="50" height="50" relative="1" as="geometry">
            <mxPoint x="346" y="429" as="sourcePoint" />
            <mxPoint x="330" y="416" as="targetPoint" />
          </mxGeometry>
        </mxCell>
        <mxCell id="5KzQJG8aGWldB78MasGk-4" value="" style="rounded=0;whiteSpace=wrap;html=1;fillColor=none;" vertex="1" parent="1">
          <mxGeometry x="350" y="390" width="40" height="20" as="geometry" />
        </mxCell>
        <mxCell id="5KzQJG8aGWldB78MasGk-6" value="R" style="text;html=1;align=center;verticalAlign=middle;whiteSpace=wrap;rounded=0;fontSize=10;fontStyle=2;fontFamily=Computer modern;" vertex="1" parent="1">
          <mxGeometry x="355" y="390" width="30" height="20" as="geometry" />
        </mxCell>
        <mxCell id="5KzQJG8aGWldB78MasGk-49" value="" style="endArrow=none;dashed=1;html=1;rounded=0;fillColor=#dae8fc;strokeColor=#6c8ebf;dashPattern=8 8;" edge="1" parent="1">
          <mxGeometry width="50" height="50" relative="1" as="geometry">
            <mxPoint x="398" y="389" as="sourcePoint" />
            <mxPoint x="377" y="370" as="targetPoint" />
          </mxGeometry>
        </mxCell>
        <mxCell id="5KzQJG8aGWldB78MasGk-76" value="" style="group" vertex="1" connectable="0" parent="1">
          <mxGeometry x="390" y="370" width="21" height="60" as="geometry" />
        </mxCell>
        <mxCell id="5KzQJG8aGWldB78MasGk-11" value="" style="endArrow=none;dashed=1;html=1;rounded=0;fillColor=#f8cecc;strokeColor=#b85450;" edge="1" parent="5KzQJG8aGWldB78MasGk-76">
          <mxGeometry width="50" height="50" relative="1" as="geometry">
            <mxPoint y="10" as="sourcePoint" />
            <mxPoint x="14" as="targetPoint" />
          </mxGeometry>
        </mxCell>
        <mxCell id="5KzQJG8aGWldB78MasGk-12" value="" style="endArrow=none;dashed=1;html=1;rounded=0;fillColor=#f8cecc;strokeColor=#b85450;" edge="1" parent="5KzQJG8aGWldB78MasGk-76">
          <mxGeometry width="50" height="50" relative="1" as="geometry">
            <mxPoint x="1" y="36.5" as="sourcePoint" />
            <mxPoint x="21" y="23.5" as="targetPoint" />
          </mxGeometry>
        </mxCell>
        <mxCell id="5KzQJG8aGWldB78MasGk-13" value="" style="endArrow=none;dashed=1;html=1;rounded=0;fillColor=#f8cecc;strokeColor=#b85450;" edge="1" parent="5KzQJG8aGWldB78MasGk-76">
          <mxGeometry width="50" height="50" relative="1" as="geometry">
            <mxPoint x="1" y="22" as="sourcePoint" />
            <mxPoint x="20" y="10" as="targetPoint" />
          </mxGeometry>
        </mxCell>
        <mxCell id="5KzQJG8aGWldB78MasGk-14" value="" style="endArrow=none;dashed=1;html=1;rounded=0;fillColor=#f8cecc;strokeColor=#b85450;" edge="1" parent="5KzQJG8aGWldB78MasGk-76">
          <mxGeometry width="50" height="50" relative="1" as="geometry">
            <mxPoint y="53" as="sourcePoint" />
            <mxPoint x="20" y="40" as="targetPoint" />
          </mxGeometry>
        </mxCell>
        <mxCell id="5KzQJG8aGWldB78MasGk-15" value="" style="endArrow=none;dashed=1;html=1;rounded=0;fillColor=#f8cecc;strokeColor=#b85450;" edge="1" parent="5KzQJG8aGWldB78MasGk-76">
          <mxGeometry width="50" height="50" relative="1" as="geometry">
            <mxPoint x="11" y="60" as="sourcePoint" />
            <mxPoint x="20" y="54" as="targetPoint" />
          </mxGeometry>
        </mxCell>
        <mxCell id="5KzQJG8aGWldB78MasGk-44" value="" style="endArrow=none;dashed=1;html=1;rounded=0;fillColor=#f8cecc;strokeColor=#b85450;" edge="1" parent="5KzQJG8aGWldB78MasGk-76">
          <mxGeometry width="50" height="50" relative="1" as="geometry">
            <mxPoint y="60" as="sourcePoint" />
            <mxPoint x="20" y="47" as="targetPoint" />
          </mxGeometry>
        </mxCell>
        <mxCell id="5KzQJG8aGWldB78MasGk-45" value="" style="endArrow=none;dashed=1;html=1;rounded=0;fillColor=#f8cecc;strokeColor=#b85450;" edge="1" parent="5KzQJG8aGWldB78MasGk-76">
          <mxGeometry width="50" height="50" relative="1" as="geometry">
            <mxPoint y="45" as="sourcePoint" />
            <mxPoint x="20" y="32" as="targetPoint" />
          </mxGeometry>
        </mxCell>
        <mxCell id="5KzQJG8aGWldB78MasGk-46" value="" style="endArrow=none;dashed=1;html=1;rounded=0;fillColor=#f8cecc;strokeColor=#b85450;" edge="1" parent="5KzQJG8aGWldB78MasGk-76">
          <mxGeometry width="50" height="50" relative="1" as="geometry">
            <mxPoint x="1" y="29" as="sourcePoint" />
            <mxPoint x="21" y="16" as="targetPoint" />
          </mxGeometry>
        </mxCell>
        <mxCell id="5KzQJG8aGWldB78MasGk-47" value="" style="endArrow=none;dashed=1;html=1;rounded=0;fillColor=#f8cecc;strokeColor=#b85450;" edge="1" parent="5KzQJG8aGWldB78MasGk-76">
          <mxGeometry width="50" height="50" relative="1" as="geometry">
            <mxPoint x="1" y="15" as="sourcePoint" />
            <mxPoint x="20" y="3" as="targetPoint" />
          </mxGeometry>
        </mxCell>
        <mxCell id="5KzQJG8aGWldB78MasGk-77" value="" style="group" vertex="1" connectable="0" parent="1">
          <mxGeometry x="330" y="370" width="21" height="60" as="geometry" />
        </mxCell>
        <mxCell id="5KzQJG8aGWldB78MasGk-17" value="" style="endArrow=none;dashed=1;html=1;rounded=0;entryX=0.927;entryY=0.005;entryDx=0;entryDy=0;entryPerimeter=0;fillColor=#d5e8d4;strokeColor=#82b366;" edge="1" parent="5KzQJG8aGWldB78MasGk-77">
          <mxGeometry width="50" height="50" relative="1" as="geometry">
            <mxPoint y="10" as="sourcePoint" />
            <mxPoint x="14" as="targetPoint" />
          </mxGeometry>
        </mxCell>
        <mxCell id="5KzQJG8aGWldB78MasGk-18" value="" style="endArrow=none;dashed=1;html=1;rounded=0;fillColor=#d5e8d4;strokeColor=#82b366;" edge="1" parent="5KzQJG8aGWldB78MasGk-77">
          <mxGeometry width="50" height="50" relative="1" as="geometry">
            <mxPoint x="1" y="36.5" as="sourcePoint" />
            <mxPoint x="21" y="23.5" as="targetPoint" />
          </mxGeometry>
        </mxCell>
        <mxCell id="5KzQJG8aGWldB78MasGk-19" value="" style="endArrow=none;dashed=1;html=1;rounded=0;fillColor=#d5e8d4;strokeColor=#82b366;" edge="1" parent="5KzQJG8aGWldB78MasGk-77">
          <mxGeometry width="50" height="50" relative="1" as="geometry">
            <mxPoint x="1" y="22" as="sourcePoint" />
            <mxPoint x="20" y="10" as="targetPoint" />
          </mxGeometry>
        </mxCell>
        <mxCell id="5KzQJG8aGWldB78MasGk-20" value="" style="endArrow=none;dashed=1;html=1;rounded=0;fillColor=#d5e8d4;strokeColor=#82b366;" edge="1" parent="5KzQJG8aGWldB78MasGk-77">
          <mxGeometry width="50" height="50" relative="1" as="geometry">
            <mxPoint x="11" y="60" as="sourcePoint" />
            <mxPoint x="20" y="54" as="targetPoint" />
          </mxGeometry>
        </mxCell>
        <mxCell id="5KzQJG8aGWldB78MasGk-21" value="" style="endArrow=none;dashed=1;html=1;rounded=0;fillColor=#d5e8d4;strokeColor=#82b366;" edge="1" parent="5KzQJG8aGWldB78MasGk-77">
          <mxGeometry width="50" height="50" relative="1" as="geometry">
            <mxPoint y="53" as="sourcePoint" />
            <mxPoint x="20" y="40" as="targetPoint" />
          </mxGeometry>
        </mxCell>
        <mxCell id="5KzQJG8aGWldB78MasGk-40" value="" style="endArrow=none;dashed=1;html=1;rounded=0;fillColor=#d5e8d4;strokeColor=#82b366;" edge="1" parent="5KzQJG8aGWldB78MasGk-77">
          <mxGeometry width="50" height="50" relative="1" as="geometry">
            <mxPoint y="16" as="sourcePoint" />
            <mxPoint x="19" y="4" as="targetPoint" />
          </mxGeometry>
        </mxCell>
        <mxCell id="5KzQJG8aGWldB78MasGk-41" value="" style="endArrow=none;dashed=1;html=1;rounded=0;fillColor=#d5e8d4;strokeColor=#82b366;" edge="1" parent="5KzQJG8aGWldB78MasGk-77">
          <mxGeometry width="50" height="50" relative="1" as="geometry">
            <mxPoint x="1" y="29" as="sourcePoint" />
            <mxPoint x="21" y="16" as="targetPoint" />
          </mxGeometry>
        </mxCell>
        <mxCell id="5KzQJG8aGWldB78MasGk-42" value="" style="endArrow=none;dashed=1;html=1;rounded=0;fillColor=#d5e8d4;strokeColor=#82b366;" edge="1" parent="5KzQJG8aGWldB78MasGk-77">
          <mxGeometry width="50" height="50" relative="1" as="geometry">
            <mxPoint x="1" y="45" as="sourcePoint" />
            <mxPoint x="21" y="32" as="targetPoint" />
          </mxGeometry>
        </mxCell>
        <mxCell id="5KzQJG8aGWldB78MasGk-43" value="" style="endArrow=none;dashed=1;html=1;rounded=0;fillColor=#d5e8d4;strokeColor=#82b366;" edge="1" parent="5KzQJG8aGWldB78MasGk-77">
          <mxGeometry width="50" height="50" relative="1" as="geometry">
            <mxPoint x="1" y="59" as="sourcePoint" />
            <mxPoint x="21" y="46" as="targetPoint" />
          </mxGeometry>
        </mxCell>
        <mxCell id="5KzQJG8aGWldB78MasGk-78" value="" style="endArrow=classic;html=1;rounded=0;strokeWidth=1;strokeColor=#969696;dashed=1;dashPattern=1 4;" edge="1" parent="1">
          <mxGeometry width="50" height="50" relative="1" as="geometry">
            <mxPoint x="320" y="600" as="sourcePoint" />
            <mxPoint x="320" y="490" as="targetPoint" />
          </mxGeometry>
        </mxCell>
        <mxCell id="5KzQJG8aGWldB78MasGk-79" value="" style="endArrow=classic;html=1;rounded=0;strokeWidth=1;strokeColor=#969696;dashed=1;dashPattern=1 4;" edge="1" parent="1">
          <mxGeometry width="50" height="50" relative="1" as="geometry">
            <mxPoint x="310" y="590" as="sourcePoint" />
            <mxPoint x="440" y="590" as="targetPoint" />
          </mxGeometry>
        </mxCell>
        <mxCell id="5KzQJG8aGWldB78MasGk-80" value="T" style="text;html=1;align=center;verticalAlign=middle;whiteSpace=wrap;rounded=0;fontSize=10;fontStyle=2;fontFamily=Computer modern;" vertex="1" parent="1">
          <mxGeometry x="410" y="510" width="10" height="10" as="geometry" />
        </mxCell>
        <mxCell id="5KzQJG8aGWldB78MasGk-82" value="" style="endArrow=none;dashed=1;html=1;dashPattern=1 4;strokeWidth=1;rounded=0;exitX=1.006;exitY=0.329;exitDx=0;exitDy=0;exitPerimeter=0;strokeColor=#969696;" edge="1" parent="1">
          <mxGeometry width="50" height="50" relative="1" as="geometry">
            <mxPoint x="407.48" y="545" as="sourcePoint" />
            <mxPoint x="330" y="545.26" as="targetPoint" />
          </mxGeometry>
        </mxCell>
        <mxCell id="5KzQJG8aGWldB78MasGk-83" value="" style="endArrow=none;dashed=1;html=1;dashPattern=1 4;strokeWidth=1;rounded=0;exitX=1.006;exitY=0.329;exitDx=0;exitDy=0;exitPerimeter=0;strokeColor=#969696;" edge="1" parent="1">
          <mxGeometry width="50" height="50" relative="1" as="geometry">
            <mxPoint x="410" y="556" as="sourcePoint" />
            <mxPoint x="330" y="556" as="targetPoint" />
          </mxGeometry>
        </mxCell>
        <mxCell id="5KzQJG8aGWldB78MasGk-84" value="" style="endArrow=none;dashed=1;html=1;dashPattern=1 4;strokeWidth=1;rounded=0;exitX=0.75;exitY=1;exitDx=0;exitDy=0;strokeColor=#969696;" edge="1" parent="1">
          <mxGeometry width="50" height="50" relative="1" as="geometry">
            <mxPoint x="356" y="580" as="sourcePoint" />
            <mxPoint x="356" y="520" as="targetPoint" />
          </mxGeometry>
        </mxCell>
        <mxCell id="5KzQJG8aGWldB78MasGk-91" value="F&lt;span style=&quot;font-size: 10px;&quot;&gt;&lt;span style=&quot;font-size: 10px;&quot;&gt;&lt;sub&gt;4&lt;/sub&gt;&lt;/span&gt;&lt;/span&gt;" style="text;html=1;align=center;verticalAlign=middle;whiteSpace=wrap;rounded=0;fontSize=10;fontStyle=2;fontFamily=Computer modern;fontColor=#9673A6;" vertex="1" parent="1">
          <mxGeometry x="355" y="582" width="30" height="10" as="geometry" />
        </mxCell>
        <mxCell id="5KzQJG8aGWldB78MasGk-92" value="F&lt;span style=&quot;font-size: 10px;&quot;&gt;&lt;span style=&quot;font-size: 10px;&quot;&gt;&lt;sub&gt;1&lt;/sub&gt;&lt;/span&gt;&lt;/span&gt;" style="text;html=1;align=center;verticalAlign=middle;whiteSpace=wrap;rounded=0;fontSize=10;fontStyle=2;fontFamily=Computer modern;fontColor=#B85450;" vertex="1" parent="1">
          <mxGeometry x="411" y="540" width="10" height="20" as="geometry" />
        </mxCell>
        <mxCell id="5KzQJG8aGWldB78MasGk-93" value="F&lt;span style=&quot;font-size: 10px;&quot;&gt;&lt;span style=&quot;font-size: 10px;&quot;&gt;&lt;sub&gt;2&lt;/sub&gt;&lt;/span&gt;&lt;/span&gt;" style="text;html=1;align=center;verticalAlign=middle;whiteSpace=wrap;rounded=0;fontSize=10;fontStyle=2;fontFamily=Computer modern;fontColor=#6C8EBF;" vertex="1" parent="1">
          <mxGeometry x="355" y="509" width="30" height="10" as="geometry" />
        </mxCell>
        <mxCell id="5KzQJG8aGWldB78MasGk-94" value="F&lt;span style=&quot;font-size: 10px;&quot;&gt;&lt;span style=&quot;font-size: 10px;&quot;&gt;&lt;sub&gt;3&lt;/sub&gt;&lt;/span&gt;&lt;/span&gt;" style="text;html=1;align=center;verticalAlign=middle;whiteSpace=wrap;rounded=0;fontSize=10;fontStyle=2;fontFamily=Computer modern;fontColor=#82B366;" vertex="1" parent="1">
          <mxGeometry x="316" y="540" width="14" height="20" as="geometry" />
        </mxCell>
        <mxCell id="5KzQJG8aGWldB78MasGk-98" value="" style="endArrow=none;dashed=1;html=1;rounded=0;fillColor=#e1d5e7;strokeColor=#9673a6;dashPattern=8 8;" edge="1" parent="1">
          <mxGeometry width="50" height="50" relative="1" as="geometry">
            <mxPoint x="338" y="580" as="sourcePoint" />
            <mxPoint x="330" y="573" as="targetPoint" />
          </mxGeometry>
        </mxCell>
        <mxCell id="5KzQJG8aGWldB78MasGk-111" value="" style="group" vertex="1" connectable="0" parent="1">
          <mxGeometry x="385" y="520" width="24" height="60" as="geometry" />
        </mxCell>
        <mxCell id="5KzQJG8aGWldB78MasGk-112" value="" style="endArrow=none;dashed=1;html=1;rounded=0;fillColor=#f8cecc;strokeColor=#b85450;" edge="1" parent="5KzQJG8aGWldB78MasGk-111">
          <mxGeometry width="50" height="50" relative="1" as="geometry">
            <mxPoint y="10" as="sourcePoint" />
            <mxPoint x="16.36111111111111" as="targetPoint" />
          </mxGeometry>
        </mxCell>
        <mxCell id="5KzQJG8aGWldB78MasGk-113" value="" style="endArrow=none;dashed=1;html=1;rounded=0;fillColor=#f8cecc;strokeColor=#b85450;" edge="1" parent="5KzQJG8aGWldB78MasGk-111">
          <mxGeometry width="50" height="50" relative="1" as="geometry">
            <mxPoint x="1.1686507936507937" y="36.5" as="sourcePoint" />
            <mxPoint x="24.541666666666664" y="23.5" as="targetPoint" />
          </mxGeometry>
        </mxCell>
        <mxCell id="5KzQJG8aGWldB78MasGk-114" value="" style="endArrow=none;dashed=1;html=1;rounded=0;fillColor=#f8cecc;strokeColor=#b85450;" edge="1" parent="5KzQJG8aGWldB78MasGk-111">
          <mxGeometry width="50" height="50" relative="1" as="geometry">
            <mxPoint x="1.1686507936507937" y="22" as="sourcePoint" />
            <mxPoint x="23.373015873015873" y="10" as="targetPoint" />
          </mxGeometry>
        </mxCell>
        <mxCell id="5KzQJG8aGWldB78MasGk-115" value="" style="endArrow=none;dashed=1;html=1;rounded=0;fillColor=#f8cecc;strokeColor=#b85450;" edge="1" parent="5KzQJG8aGWldB78MasGk-111">
          <mxGeometry width="50" height="50" relative="1" as="geometry">
            <mxPoint y="53" as="sourcePoint" />
            <mxPoint x="23.373015873015873" y="40" as="targetPoint" />
          </mxGeometry>
        </mxCell>
        <mxCell id="5KzQJG8aGWldB78MasGk-116" value="" style="endArrow=none;dashed=1;html=1;rounded=0;fillColor=#f8cecc;strokeColor=#b85450;" edge="1" parent="5KzQJG8aGWldB78MasGk-111">
          <mxGeometry width="50" height="50" relative="1" as="geometry">
            <mxPoint x="12.855158730158731" y="60" as="sourcePoint" />
            <mxPoint x="23.373015873015873" y="54" as="targetPoint" />
          </mxGeometry>
        </mxCell>
        <mxCell id="5KzQJG8aGWldB78MasGk-117" value="" style="endArrow=none;dashed=1;html=1;rounded=0;fillColor=#f8cecc;strokeColor=#b85450;" edge="1" parent="5KzQJG8aGWldB78MasGk-111">
          <mxGeometry width="50" height="50" relative="1" as="geometry">
            <mxPoint y="60" as="sourcePoint" />
            <mxPoint x="23.373015873015873" y="47" as="targetPoint" />
          </mxGeometry>
        </mxCell>
        <mxCell id="5KzQJG8aGWldB78MasGk-118" value="" style="endArrow=none;dashed=1;html=1;rounded=0;fillColor=#f8cecc;strokeColor=#b85450;" edge="1" parent="5KzQJG8aGWldB78MasGk-111">
          <mxGeometry width="50" height="50" relative="1" as="geometry">
            <mxPoint y="45" as="sourcePoint" />
            <mxPoint x="23.373015873015873" y="32" as="targetPoint" />
          </mxGeometry>
        </mxCell>
        <mxCell id="5KzQJG8aGWldB78MasGk-119" value="" style="endArrow=none;dashed=1;html=1;rounded=0;fillColor=#f8cecc;strokeColor=#b85450;" edge="1" parent="5KzQJG8aGWldB78MasGk-111">
          <mxGeometry width="50" height="50" relative="1" as="geometry">
            <mxPoint x="1.1686507936507937" y="29" as="sourcePoint" />
            <mxPoint x="24.541666666666664" y="16" as="targetPoint" />
          </mxGeometry>
        </mxCell>
        <mxCell id="5KzQJG8aGWldB78MasGk-120" value="" style="endArrow=none;dashed=1;html=1;rounded=0;fillColor=#f8cecc;strokeColor=#b85450;" edge="1" parent="5KzQJG8aGWldB78MasGk-111">
          <mxGeometry width="50" height="50" relative="1" as="geometry">
            <mxPoint x="1.1686507936507937" y="15" as="sourcePoint" />
            <mxPoint x="23.373015873015873" y="3" as="targetPoint" />
          </mxGeometry>
        </mxCell>
        <mxCell id="5KzQJG8aGWldB78MasGk-121" value="" style="group" vertex="1" connectable="0" parent="1">
          <mxGeometry x="330" y="520" width="30" height="60" as="geometry" />
        </mxCell>
        <mxCell id="5KzQJG8aGWldB78MasGk-122" value="" style="endArrow=none;dashed=1;html=1;rounded=0;entryX=0.927;entryY=0.005;entryDx=0;entryDy=0;entryPerimeter=0;fillColor=#d5e8d4;strokeColor=#82b366;" edge="1" parent="5KzQJG8aGWldB78MasGk-121">
          <mxGeometry width="50" height="50" relative="1" as="geometry">
            <mxPoint y="10" as="sourcePoint" />
            <mxPoint x="16.153846153846153" as="targetPoint" />
          </mxGeometry>
        </mxCell>
        <mxCell id="5KzQJG8aGWldB78MasGk-123" value="" style="endArrow=none;dashed=1;html=1;rounded=0;fillColor=#d5e8d4;strokeColor=#82b366;" edge="1" parent="5KzQJG8aGWldB78MasGk-121">
          <mxGeometry width="50" height="50" relative="1" as="geometry">
            <mxPoint x="1.1538461538461537" y="36.5" as="sourcePoint" />
            <mxPoint x="24.23076923076923" y="23.5" as="targetPoint" />
          </mxGeometry>
        </mxCell>
        <mxCell id="5KzQJG8aGWldB78MasGk-124" value="" style="endArrow=none;dashed=1;html=1;rounded=0;fillColor=#d5e8d4;strokeColor=#82b366;" edge="1" parent="5KzQJG8aGWldB78MasGk-121">
          <mxGeometry width="50" height="50" relative="1" as="geometry">
            <mxPoint x="1.1538461538461537" y="22" as="sourcePoint" />
            <mxPoint x="23.076923076923073" y="10" as="targetPoint" />
          </mxGeometry>
        </mxCell>
        <mxCell id="5KzQJG8aGWldB78MasGk-125" value="" style="endArrow=none;dashed=1;html=1;rounded=0;fillColor=#d5e8d4;strokeColor=#82b366;" edge="1" parent="5KzQJG8aGWldB78MasGk-121">
          <mxGeometry width="50" height="50" relative="1" as="geometry">
            <mxPoint x="12.692307692307692" y="60" as="sourcePoint" />
            <mxPoint x="23.076923076923073" y="54" as="targetPoint" />
          </mxGeometry>
        </mxCell>
        <mxCell id="5KzQJG8aGWldB78MasGk-126" value="" style="endArrow=none;dashed=1;html=1;rounded=0;fillColor=#d5e8d4;strokeColor=#82b366;" edge="1" parent="5KzQJG8aGWldB78MasGk-121">
          <mxGeometry width="50" height="50" relative="1" as="geometry">
            <mxPoint y="53" as="sourcePoint" />
            <mxPoint x="23.076923076923073" y="40" as="targetPoint" />
          </mxGeometry>
        </mxCell>
        <mxCell id="5KzQJG8aGWldB78MasGk-127" value="" style="endArrow=none;dashed=1;html=1;rounded=0;fillColor=#d5e8d4;strokeColor=#82b366;" edge="1" parent="5KzQJG8aGWldB78MasGk-121">
          <mxGeometry width="50" height="50" relative="1" as="geometry">
            <mxPoint y="16" as="sourcePoint" />
            <mxPoint x="21.92307692307692" y="4" as="targetPoint" />
          </mxGeometry>
        </mxCell>
        <mxCell id="5KzQJG8aGWldB78MasGk-128" value="" style="endArrow=none;dashed=1;html=1;rounded=0;fillColor=#d5e8d4;strokeColor=#82b366;" edge="1" parent="5KzQJG8aGWldB78MasGk-121">
          <mxGeometry width="50" height="50" relative="1" as="geometry">
            <mxPoint x="1.1538461538461537" y="29" as="sourcePoint" />
            <mxPoint x="24.23076923076923" y="16" as="targetPoint" />
          </mxGeometry>
        </mxCell>
        <mxCell id="5KzQJG8aGWldB78MasGk-129" value="" style="endArrow=none;dashed=1;html=1;rounded=0;fillColor=#d5e8d4;strokeColor=#82b366;" edge="1" parent="5KzQJG8aGWldB78MasGk-121">
          <mxGeometry width="50" height="50" relative="1" as="geometry">
            <mxPoint x="1.1538461538461537" y="45" as="sourcePoint" />
            <mxPoint x="24.23076923076923" y="32" as="targetPoint" />
          </mxGeometry>
        </mxCell>
        <mxCell id="5KzQJG8aGWldB78MasGk-130" value="" style="endArrow=none;dashed=1;html=1;rounded=0;fillColor=#d5e8d4;strokeColor=#82b366;" edge="1" parent="5KzQJG8aGWldB78MasGk-121">
          <mxGeometry width="50" height="50" relative="1" as="geometry">
            <mxPoint x="1.1538461538461537" y="59" as="sourcePoint" />
            <mxPoint x="24.23076923076923" y="46" as="targetPoint" />
          </mxGeometry>
        </mxCell>
        <mxCell id="5KzQJG8aGWldB78MasGk-142" value="" style="endArrow=none;dashed=1;html=1;dashPattern=1 4;strokeWidth=1;rounded=0;exitX=0.75;exitY=1;exitDx=0;exitDy=0;strokeColor=#969696;" edge="1" parent="1">
          <mxGeometry width="50" height="50" relative="1" as="geometry">
            <mxPoint x="384.89" y="580" as="sourcePoint" />
            <mxPoint x="384.89" y="520" as="targetPoint" />
          </mxGeometry>
        </mxCell>
        <mxCell id="5KzQJG8aGWldB78MasGk-144" value="" style="group" vertex="1" connectable="0" parent="1">
          <mxGeometry x="330" y="556" width="78" height="24" as="geometry" />
        </mxCell>
        <mxCell id="5KzQJG8aGWldB78MasGk-99" value="" style="endArrow=none;dashed=1;html=1;rounded=0;fillColor=#e1d5e7;strokeColor=#9673a6;dashPattern=8 8;" edge="1" parent="5KzQJG8aGWldB78MasGk-144">
          <mxGeometry width="50" height="50" relative="1" as="geometry">
            <mxPoint x="24" y="20" as="sourcePoint" />
            <mxPoint x="3" y="1" as="targetPoint" />
          </mxGeometry>
        </mxCell>
        <mxCell id="5KzQJG8aGWldB78MasGk-100" value="" style="endArrow=none;dashed=1;html=1;rounded=0;fillColor=#e1d5e7;strokeColor=#9673a6;dashPattern=8 8;" edge="1" parent="5KzQJG8aGWldB78MasGk-144">
          <mxGeometry width="50" height="50" relative="1" as="geometry">
            <mxPoint x="45" y="19" as="sourcePoint" />
            <mxPoint x="24" as="targetPoint" />
          </mxGeometry>
        </mxCell>
        <mxCell id="5KzQJG8aGWldB78MasGk-101" value="" style="endArrow=none;dashed=1;html=1;rounded=0;fillColor=#e1d5e7;strokeColor=#9673a6;dashPattern=8 8;" edge="1" parent="5KzQJG8aGWldB78MasGk-144">
          <mxGeometry width="50" height="50" relative="1" as="geometry">
            <mxPoint x="56" y="19" as="sourcePoint" />
            <mxPoint x="35" as="targetPoint" />
          </mxGeometry>
        </mxCell>
        <mxCell id="5KzQJG8aGWldB78MasGk-102" value="" style="endArrow=none;dashed=1;html=1;rounded=0;fillColor=#e1d5e7;strokeColor=#9673a6;dashPattern=8 8;" edge="1" parent="5KzQJG8aGWldB78MasGk-144">
          <mxGeometry width="50" height="50" relative="1" as="geometry">
            <mxPoint x="75" y="19" as="sourcePoint" />
            <mxPoint x="54" as="targetPoint" />
          </mxGeometry>
        </mxCell>
        <mxCell id="5KzQJG8aGWldB78MasGk-103" value="" style="endArrow=none;dashed=1;html=1;rounded=0;fillColor=#e1d5e7;strokeColor=#9673a6;dashPattern=8 8;" edge="1" parent="5KzQJG8aGWldB78MasGk-144">
          <mxGeometry width="50" height="50" relative="1" as="geometry">
            <mxPoint x="77" y="7" as="sourcePoint" />
            <mxPoint x="69" as="targetPoint" />
          </mxGeometry>
        </mxCell>
        <mxCell id="5KzQJG8aGWldB78MasGk-104" value="" style="endArrow=none;dashed=1;html=1;rounded=0;fillColor=#e1d5e7;strokeColor=#9673a6;dashPattern=8 8;" edge="1" parent="5KzQJG8aGWldB78MasGk-144">
          <mxGeometry width="50" height="50" relative="1" as="geometry">
            <mxPoint x="34" y="19" as="sourcePoint" />
            <mxPoint x="13" as="targetPoint" />
          </mxGeometry>
        </mxCell>
        <mxCell id="5KzQJG8aGWldB78MasGk-105" value="" style="endArrow=none;dashed=1;html=1;rounded=0;fillColor=#e1d5e7;strokeColor=#9673a6;dashPattern=8 8;" edge="1" parent="5KzQJG8aGWldB78MasGk-144">
          <mxGeometry width="50" height="50" relative="1" as="geometry">
            <mxPoint x="67" y="19" as="sourcePoint" />
            <mxPoint x="46" as="targetPoint" />
          </mxGeometry>
        </mxCell>
        <mxCell id="5KzQJG8aGWldB78MasGk-106" value="" style="endArrow=none;dashed=1;html=1;rounded=0;fillColor=#e1d5e7;strokeColor=#9673a6;dashPattern=8 8;" edge="1" parent="5KzQJG8aGWldB78MasGk-144">
          <mxGeometry width="50" height="50" relative="1" as="geometry">
            <mxPoint x="78" y="16" as="sourcePoint" />
            <mxPoint x="63" y="1" as="targetPoint" />
          </mxGeometry>
        </mxCell>
        <mxCell id="5KzQJG8aGWldB78MasGk-107" value="" style="endArrow=none;dashed=1;html=1;rounded=0;fillColor=#e1d5e7;strokeColor=#9673a6;dashPattern=8 8;" edge="1" parent="5KzQJG8aGWldB78MasGk-144">
          <mxGeometry width="50" height="50" relative="1" as="geometry">
            <mxPoint x="16" y="19" as="sourcePoint" />
            <mxPoint y="6" as="targetPoint" />
          </mxGeometry>
        </mxCell>
        <mxCell id="5KzQJG8aGWldB78MasGk-143" value="" style="group" vertex="1" connectable="0" parent="1">
          <mxGeometry x="331" y="520" width="78" height="40" as="geometry" />
        </mxCell>
        <mxCell id="5KzQJG8aGWldB78MasGk-85" value="" style="endArrow=none;dashed=1;html=1;rounded=0;fillColor=#dae8fc;strokeColor=#6c8ebf;dashPattern=8 8;" edge="1" parent="5KzQJG8aGWldB78MasGk-143">
          <mxGeometry width="50" height="50" relative="1" as="geometry">
            <mxPoint x="8" y="24" as="sourcePoint" />
            <mxPoint y="15.6" as="targetPoint" />
          </mxGeometry>
        </mxCell>
        <mxCell id="5KzQJG8aGWldB78MasGk-86" value="" style="endArrow=none;dashed=1;html=1;rounded=0;fillColor=#dae8fc;strokeColor=#6c8ebf;dashPattern=8 8;" edge="1" parent="5KzQJG8aGWldB78MasGk-143">
          <mxGeometry width="50" height="50" relative="1" as="geometry">
            <mxPoint x="24" y="24" as="sourcePoint" />
            <mxPoint x="3" y="1.2" as="targetPoint" />
          </mxGeometry>
        </mxCell>
        <mxCell id="5KzQJG8aGWldB78MasGk-87" value="" style="endArrow=none;dashed=1;html=1;rounded=0;fillColor=#dae8fc;strokeColor=#6c8ebf;dashPattern=8 8;" edge="1" parent="5KzQJG8aGWldB78MasGk-143">
          <mxGeometry width="50" height="50" relative="1" as="geometry">
            <mxPoint x="45" y="22.8" as="sourcePoint" />
            <mxPoint x="24" as="targetPoint" />
          </mxGeometry>
        </mxCell>
        <mxCell id="5KzQJG8aGWldB78MasGk-88" value="" style="endArrow=none;dashed=1;html=1;rounded=0;fillColor=#dae8fc;strokeColor=#6c8ebf;dashPattern=8 8;" edge="1" parent="5KzQJG8aGWldB78MasGk-143">
          <mxGeometry width="50" height="50" relative="1" as="geometry">
            <mxPoint x="56" y="22.8" as="sourcePoint" />
            <mxPoint x="35" as="targetPoint" />
          </mxGeometry>
        </mxCell>
        <mxCell id="5KzQJG8aGWldB78MasGk-89" value="" style="endArrow=none;dashed=1;html=1;rounded=0;fillColor=#dae8fc;strokeColor=#6c8ebf;dashPattern=8 8;" edge="1" parent="5KzQJG8aGWldB78MasGk-143">
          <mxGeometry width="50" height="50" relative="1" as="geometry">
            <mxPoint x="75" y="22.8" as="sourcePoint" />
            <mxPoint x="54" as="targetPoint" />
          </mxGeometry>
        </mxCell>
        <mxCell id="5KzQJG8aGWldB78MasGk-90" value="" style="endArrow=none;dashed=1;html=1;rounded=0;fillColor=#dae8fc;strokeColor=#6c8ebf;dashPattern=8 8;" edge="1" parent="5KzQJG8aGWldB78MasGk-143">
          <mxGeometry width="50" height="50" relative="1" as="geometry">
            <mxPoint x="77" y="8.4" as="sourcePoint" />
            <mxPoint x="69" as="targetPoint" />
          </mxGeometry>
        </mxCell>
        <mxCell id="5KzQJG8aGWldB78MasGk-95" value="" style="endArrow=none;dashed=1;html=1;rounded=0;fillColor=#dae8fc;strokeColor=#6c8ebf;dashPattern=8 8;" edge="1" parent="5KzQJG8aGWldB78MasGk-143">
          <mxGeometry width="50" height="50" relative="1" as="geometry">
            <mxPoint x="34" y="22.8" as="sourcePoint" />
            <mxPoint x="13" as="targetPoint" />
          </mxGeometry>
        </mxCell>
        <mxCell id="5KzQJG8aGWldB78MasGk-96" value="" style="endArrow=none;dashed=1;html=1;rounded=0;fillColor=#dae8fc;strokeColor=#6c8ebf;dashPattern=8 8;" edge="1" parent="5KzQJG8aGWldB78MasGk-143">
          <mxGeometry width="50" height="50" relative="1" as="geometry">
            <mxPoint x="78" y="19.2" as="sourcePoint" />
            <mxPoint x="63" y="1.2" as="targetPoint" />
          </mxGeometry>
        </mxCell>
        <mxCell id="5KzQJG8aGWldB78MasGk-97" value="" style="endArrow=none;dashed=1;html=1;rounded=0;fillColor=#dae8fc;strokeColor=#6c8ebf;dashPattern=8 8;" edge="1" parent="5KzQJG8aGWldB78MasGk-143">
          <mxGeometry width="50" height="50" relative="1" as="geometry">
            <mxPoint x="16" y="22.8" as="sourcePoint" />
            <mxPoint y="7.199999999999999" as="targetPoint" />
          </mxGeometry>
        </mxCell>
        <mxCell id="5KzQJG8aGWldB78MasGk-110" value="" style="endArrow=none;dashed=1;html=1;rounded=0;fillColor=#dae8fc;strokeColor=#6c8ebf;dashPattern=8 8;" edge="1" parent="5KzQJG8aGWldB78MasGk-143">
          <mxGeometry width="50" height="50" relative="1" as="geometry">
            <mxPoint x="67" y="22.8" as="sourcePoint" />
            <mxPoint x="46" as="targetPoint" />
          </mxGeometry>
        </mxCell>
        <mxCell id="5KzQJG8aGWldB78MasGk-145" value="" style="rounded=0;whiteSpace=wrap;html=1;fillColor=none;dashed=1;dashPattern=1 1;" vertex="1" parent="5KzQJG8aGWldB78MasGk-143">
          <mxGeometry x="19" y="20" width="40" height="20" as="geometry" />
        </mxCell>
      </root>
    </mxGraphModel>
  </diagram>
</mxfile>
